<?xml version="1.0" encoding="UTF-8" standalone="no"?><!DOCTYPE svg PUBLIC "-//W3C//DTD SVG 1.1//EN" "http://www.w3.org/Graphics/SVG/1.1/DTD/svg11.dtd"><svg width="100%" height="100%" viewBox="0 0 1067 1067" version="1.1" xmlns="http://www.w3.org/2000/svg" xmlns:xlink="http://www.w3.org/1999/xlink" xml:space="preserve" xmlns:serif="http://www.serif.com/" style="fill-rule:evenodd;clip-rule:evenodd;stroke-linecap:round;stroke-linejoin:round;stroke-miterlimit:1.5;"><g><path d="M269.949,520.674l-0,-202.429l526.761,-0l0,202.429c0,111.724 -118.017,202.43 -263.381,202.43c-145.363,-0 -263.38,-90.706 -263.38,-202.43Z" style="stroke:#000;stroke-width:5.03px;"/><path d="M533.331,351.406l-0.002,-235.97c86.293,0 159.071,33.877 201.556,76.362c0,0 63.444,131.62 215.11,303.778c110.166,125.051 104.766,151.558 83.983,124.266c-76.029,-99.843 -207.287,-162.917 -275.457,-138.431c-97.964,35.188 -191.418,194.414 -212.504,392.203c-1.131,10.607 7.302,29.49 6.651,40.308c-0.754,12.523 -6.561,29.937 -14.996,34.585l-0,-592.759c-0,-2.396 -1.944,-4.342 -4.341,-4.342Z" style="fill:#ebd8d8;"/><path d="M533.335,351.406l0.002,-235.97c-86.292,0 -159.071,33.877 -201.556,76.362c0,0 -63.443,131.62 -215.109,303.778c-110.166,125.051 -104.766,151.558 -83.984,124.266c76.03,-99.843 207.288,-162.917 275.458,-138.431c97.963,35.188 191.417,194.414 212.504,392.203c1.13,10.607 -7.302,29.49 -6.651,40.308c0.753,12.523 6.561,29.937 14.996,34.585l-0,-592.759c-0,-2.396 1.944,-4.342 4.34,-4.342Z" style="fill:#8a7e92;"/><circle cx="533.329" cy="355.748" r="37.504"/><path d="M533.329,951.23l0,-595.482" style="fill:none;"/></g></svg>